<?xml version="1.0" encoding="UTF-8"?>
<svg width="800" height="600" viewBox="0 0 800 600" fill="none" xmlns="http://www.w3.org/2000/svg">
  <!-- Background -->
  <rect width="800" height="600" fill="#F8FAFC" rx="12"/>
  
  <!-- Tech Pack Document -->
  <rect x="100" y="50" width="600" height="500" fill="white" stroke="#E2E8F0" stroke-width="2" rx="8"/>
  
  <!-- AI Generation Effect -->
  <g opacity="0.8">
    <circle cx="400" cy="300" r="180" fill="url(#gradient1)" opacity="0.1"/>
    <circle cx="400" cy="300" r="140" fill="url(#gradient2)" opacity="0.15"/>
    <circle cx="400" cy="300" r="100" fill="url(#gradient3)" opacity="0.2"/>
  </g>
  
  <!-- Document Content -->
  <rect x="150" y="100" width="200" height="30" fill="#E2E8F0" rx="4"/>
  <rect x="150" y="150" width="300" height="20" fill="#EDF2F7" rx="4"/>
  <rect x="150" y="190" width="250" height="20" fill="#EDF2F7" rx="4"/>
  
  <!-- Measurements -->
  <rect x="150" y="250" width="180" height="160" fill="#EDF2F7" stroke="#CBD5E0" stroke-width="2" rx="8"/>
  <line x1="150" y1="290" x2="330" y2="290" stroke="#CBD5E0" stroke-width="2"/>
  <line x1="150" y1="330" x2="330" y2="330" stroke="#CBD5E0" stroke-width="2"/>
  <line x1="150" y1="370" x2="330" y2="370" stroke="#CBD5E0" stroke-width="2"/>
  
  <!-- AI Suggestions -->
  <rect x="450" y="250" width="200" height="160" fill="#8B5CF6" fill-opacity="0.1" stroke="#8B5CF6" stroke-width="2" rx="8"/>
  <circle cx="470" cy="270" r="6" fill="#8B5CF6"/>
  <rect x="485" y="265" width="150" height="10" fill="#8B5CF6" fill-opacity="0.3" rx="2"/>
  <circle cx="470" cy="300" r="6" fill="#8B5CF6"/>
  <rect x="485" y="295" width="120" height="10" fill="#8B5CF6" fill-opacity="0.3" rx="2"/>
  <circle cx="470" cy="330" r="6" fill="#8B5CF6"/>
  <rect x="485" y="325" width="140" height="10" fill="#8B5CF6" fill-opacity="0.3" rx="2"/>
  
  <!-- Gradients -->
  <defs>
    <linearGradient id="gradient1" x1="0" y1="0" x2="1" y2="1">
      <stop offset="0%" stop-color="#8B5CF6"/>
      <stop offset="100%" stop-color="#6366F1"/>
    </linearGradient>
    <linearGradient id="gradient2" x1="1" y1="0" x2="0" y2="1">
      <stop offset="0%" stop-color="#8B5CF6"/>
      <stop offset="100%" stop-color="#6366F1"/>
    </linearGradient>
    <linearGradient id="gradient3" x1="0" y1="1" x2="1" y2="0">
      <stop offset="0%" stop-color="#8B5CF6"/>
      <stop offset="100%" stop-color="#6366F1"/>
    </linearGradient>
  </defs>
</svg>
