<?xml version="1.0" encoding="UTF-8"?>
<svg width="800" height="600" viewBox="0 0 800 600" fill="none" xmlns="http://www.w3.org/2000/svg">
  <!-- Background -->
  <rect width="800" height="600" fill="#F8FAFC" rx="12"/>
  
  <!-- Main Document -->
  <rect x="50" y="50" width="700" height="500" fill="white" stroke="#E2E8F0" stroke-width="2" rx="8"/>
  
  <!-- User Avatars -->
  <g transform="translate(650, 80)">
    <circle cx="0" cy="0" r="25" fill="#8B5CF6"/>
    <circle cx="-60" cy="0" r="25" fill="#6366F1"/>
    <circle cx="-120" cy="0" r="25" fill="#EC4899"/>
  </g>
  
  <!-- Collaboration Indicators -->
  <g transform="translate(100, 150)">
    <!-- User 1 Edit -->
    <rect width="180" height="120" fill="#8B5CF6" fill-opacity="0.1" stroke="#8B5CF6" stroke-width="2" rx="8"/>
    <circle cx="30" cy="-30" r="15" fill="#8B5CF6"/>
    <line x1="20" y1="30" x2="160" y2="30" stroke="#8B5CF6" stroke-width="2"/>
    <line x1="20" y1="60" x2="140" y2="60" stroke="#8B5CF6" stroke-width="2"/>
    <line x1="20" y1="90" x2="120" y2="90" stroke="#8B5CF6" stroke-width="2"/>
    
    <!-- User 2 Edit -->
    <g transform="translate(220, 0)">
      <rect width="180" height="120" fill="#6366F1" fill-opacity="0.1" stroke="#6366F1" stroke-width="2" rx="8"/>
      <circle cx="30" cy="-30" r="15" fill="#6366F1"/>
      <line x1="20" y1="30" x2="160" y2="30" stroke="#6366F1" stroke-width="2"/>
      <line x1="20" y1="60" x2="140" y2="60" stroke="#6366F1" stroke-width="2"/>
      <line x1="20" y1="90" x2="120" y2="90" stroke="#6366F1" stroke-width="2"/>
    </g>
    
    <!-- User 3 Edit -->
    <g transform="translate(440, 0)">
      <rect width="180" height="120" fill="#EC4899" fill-opacity="0.1" stroke="#EC4899" stroke-width="2" rx="8"/>
      <circle cx="30" cy="-30" r="15" fill="#EC4899"/>
      <line x1="20" y1="30" x2="160" y2="30" stroke="#EC4899" stroke-width="2"/>
      <line x1="20" y1="60" x2="140" y2="60" stroke="#EC4899" stroke-width="2"/>
      <line x1="20" y1="90" x2="120" y2="90" stroke="#EC4899" stroke-width="2"/>
    </g>
  </g>
  
  <!-- Comments Section -->
  <g transform="translate(100, 320)">
    <rect width="600" height="180" fill="#F1F5F9" stroke="#E2E8F0" stroke-width="2" rx="8"/>
    
    <!-- Comment 1 -->
    <g transform="translate(20, 20)">
      <circle cx="15" cy="15" r="15" fill="#8B5CF6"/>
      <rect x="40" y="0" width="520" height="40" fill="white" stroke="#E2E8F0" stroke-width="2" rx="4"/>
    </g>
    
    <!-- Comment 2 -->
    <g transform="translate(20, 70)">
      <circle cx="15" cy="15" r="15" fill="#6366F1"/>
      <rect x="40" y="0" width="520" height="40" fill="white" stroke="#E2E8F0" stroke-width="2" rx="4"/>
    </g>
    
    <!-- Comment 3 -->
    <g transform="translate(20, 120)">
      <circle cx="15" cy="15" r="15" fill="#EC4899"/>
      <rect x="40" y="0" width="520" height="40" fill="white" stroke="#E2E8F0" stroke-width="2" rx="4"/>
    </g>
  </g>
</svg>
